<?xml version="1.0" encoding="UTF-8" standalone="no"?>
<!-- Created with Inkscape (http://www.inkscape.org/) -->

<svg
   width="210mm"
   height="297mm"
   viewBox="0 0 210 297"
   version="1.1"
   id="svg1"
   inkscape:version="1.3 (0e150ed6c4, 2023-07-21)"
   sodipodi:docname="art.svg"
   xml:space="preserve"
   xmlns:inkscape="http://www.inkscape.org/namespaces/inkscape"
   xmlns:sodipodi="http://sodipodi.sourceforge.net/DTD/sodipodi-0.dtd"
   xmlns="http://www.w3.org/2000/svg"
   xmlns:svg="http://www.w3.org/2000/svg"><sodipodi:namedview
     id="namedview1"
     pagecolor="#505050"
     bordercolor="#eeeeee"
     borderopacity="1"
     inkscape:showpageshadow="0"
     inkscape:pageopacity="0"
     inkscape:pagecheckerboard="0"
     inkscape:deskcolor="#505050"
     inkscape:document-units="mm"
     inkscape:zoom="0.52347032"
     inkscape:cx="613.21529"
     inkscape:cy="690.58357"
     inkscape:window-width="1920"
     inkscape:window-height="1009"
     inkscape:window-x="1912"
     inkscape:window-y="-8"
     inkscape:window-maximized="1"
     inkscape:current-layer="layer1" /><defs
     id="defs1"><filter
       style="color-interpolation-filters:sRGB;"
       inkscape:label="Drop Shadow"
       id="filter38"
       x="-0.087900267"
       y="-0.18111157"
       width="1.1816606"
       height="1.3742973"><feFlood
         result="flood"
         in="SourceGraphic"
         flood-opacity="0.533333"
         flood-color="rgb(0,0,0)"
         id="feFlood37" /><feGaussianBlur
         result="blur"
         in="SourceGraphic"
         stdDeviation="2.500000"
         id="feGaussianBlur37" /><feOffset
         result="offset"
         in="blur"
         dx="0.400000"
         dy="0.400000"
         id="feOffset37" /><feComposite
         result="comp1"
         operator="in"
         in="flood"
         in2="offset"
         id="feComposite37" /><feComposite
         result="comp2"
         operator="over"
         in="SourceGraphic"
         in2="comp1"
         id="feComposite38" /></filter></defs><g
     inkscape:label="Layer 1"
     inkscape:groupmode="layer"
     id="layer1"><g
       id="g93"
       transform="translate(11.436823,208.00722)"><rect
         style="fill:#7aceff;fill-opacity:1;fill-rule:evenodd;stroke:none;stroke-width:3;stroke-linecap:round;stroke-linejoin:round;stroke-miterlimit:1.8;paint-order:markers stroke fill"
         id="rect68"
         width="210"
         height="200.50182"
         x="0"
         y="13.938628" /><rect
         style="fill:#000000;fill-opacity:0.219285;fill-rule:evenodd;stroke:none;stroke-width:5;stroke-linecap:round;stroke-linejoin:round;stroke-miterlimit:1.8;stroke-dasharray:none;stroke-opacity:1;paint-order:markers stroke fill"
         id="rect69"
         width="139.90204"
         height="138.6243"
         x="40.929932"
         y="49.622898" /><rect
         style="fill:#607f36;fill-opacity:1;fill-rule:evenodd;stroke:#ffffff;stroke-width:5;stroke-linecap:round;stroke-linejoin:round;stroke-miterlimit:1.8;stroke-dasharray:none;stroke-opacity:1;paint-order:markers stroke fill"
         id="rect1"
         width="139.90204"
         height="138.6243"
         x="30.119005"
         y="39.387718" /><g
         id="g66"
         transform="translate(-16.588474,-115.72418)"><rect
           style="fill:#6b8e3c;fill-opacity:1;fill-rule:evenodd;stroke:none;stroke-width:0.523655;stroke-linecap:round;stroke-linejoin:round;stroke-miterlimit:1.8;paint-order:markers stroke fill"
           id="rect2"
           width="18.715475"
           height="18.715475"
           x="49.008232"
           y="158.67627"
           rx="3"
           ry="3" /><rect
           style="fill:#6b8e3c;fill-opacity:1;fill-rule:evenodd;stroke:none;stroke-width:0.523655;stroke-linecap:round;stroke-linejoin:round;stroke-miterlimit:1.8;paint-order:markers stroke fill"
           id="rect38"
           width="18.715475"
           height="18.715475"
           x="72.325249"
           y="158.67627"
           rx="3"
           ry="3" /><rect
           style="fill:#6b8e3c;fill-opacity:1;fill-rule:evenodd;stroke:none;stroke-width:0.523655;stroke-linecap:round;stroke-linejoin:round;stroke-miterlimit:1.8;paint-order:markers stroke fill"
           id="rect39"
           width="18.715475"
           height="18.715475"
           x="95.642258"
           y="158.67627"
           rx="3"
           ry="3" /><rect
           style="fill:#6b8e3c;fill-opacity:1;fill-rule:evenodd;stroke:none;stroke-width:0.523655;stroke-linecap:round;stroke-linejoin:round;stroke-miterlimit:1.8;paint-order:markers stroke fill"
           id="rect40"
           width="18.715475"
           height="18.715475"
           x="118.95926"
           y="158.67627"
           rx="3"
           ry="3" /><rect
           style="fill:#6b8e3c;fill-opacity:1;fill-rule:evenodd;stroke:none;stroke-width:0.523655;stroke-linecap:round;stroke-linejoin:round;stroke-miterlimit:1.8;paint-order:markers stroke fill"
           id="rect41"
           width="18.715475"
           height="18.715475"
           x="142.27625"
           y="158.67627"
           rx="3"
           ry="3" /><rect
           style="fill:#6b8e3c;fill-opacity:1;fill-rule:evenodd;stroke:none;stroke-width:0.523655;stroke-linecap:round;stroke-linejoin:round;stroke-miterlimit:1.8;paint-order:markers stroke fill"
           id="rect42"
           width="18.715475"
           height="18.715475"
           x="165.59326"
           y="158.67627"
           rx="3"
           ry="3" /><rect
           style="fill:#6b8e3c;fill-opacity:1;fill-rule:evenodd;stroke:none;stroke-width:0.523655;stroke-linecap:round;stroke-linejoin:round;stroke-miterlimit:1.8;paint-order:markers stroke fill"
           id="rect43"
           width="18.715475"
           height="18.715475"
           x="49.008232"
           y="180.68317"
           rx="3"
           ry="3" /><rect
           style="fill:#6b8e3c;fill-opacity:1;fill-rule:evenodd;stroke:none;stroke-width:0.523655;stroke-linecap:round;stroke-linejoin:round;stroke-miterlimit:1.8;paint-order:markers stroke fill"
           id="rect44"
           width="18.715475"
           height="18.715475"
           x="72.325249"
           y="180.68317"
           rx="3"
           ry="3" /><rect
           style="fill:#6b8e3c;fill-opacity:1;fill-rule:evenodd;stroke:none;stroke-width:0.523655;stroke-linecap:round;stroke-linejoin:round;stroke-miterlimit:1.8;paint-order:markers stroke fill"
           id="rect45"
           width="18.715475"
           height="18.715475"
           x="95.642258"
           y="180.68317"
           rx="3"
           ry="3" /><rect
           style="fill:#6b8e3c;fill-opacity:1;fill-rule:evenodd;stroke:none;stroke-width:0.523655;stroke-linecap:round;stroke-linejoin:round;stroke-miterlimit:1.8;paint-order:markers stroke fill"
           id="rect46"
           width="18.715475"
           height="18.715475"
           x="118.95926"
           y="180.68317"
           rx="3"
           ry="3" /><rect
           style="fill:#6b8e3c;fill-opacity:1;fill-rule:evenodd;stroke:none;stroke-width:0.523655;stroke-linecap:round;stroke-linejoin:round;stroke-miterlimit:1.8;paint-order:markers stroke fill"
           id="rect47"
           width="18.715475"
           height="18.715475"
           x="142.27625"
           y="180.68317"
           rx="3"
           ry="3" /><rect
           style="fill:#6b8e3c;fill-opacity:1;fill-rule:evenodd;stroke:none;stroke-width:0.523655;stroke-linecap:round;stroke-linejoin:round;stroke-miterlimit:1.8;paint-order:markers stroke fill"
           id="rect48"
           width="18.715475"
           height="18.715475"
           x="165.59326"
           y="180.68317"
           rx="3"
           ry="3" /><rect
           style="fill:#6b8e3c;fill-opacity:1;fill-rule:evenodd;stroke:none;stroke-width:0.523655;stroke-linecap:round;stroke-linejoin:round;stroke-miterlimit:1.8;paint-order:markers stroke fill"
           id="rect49"
           width="18.715475"
           height="18.715475"
           x="49.008232"
           y="203.18541"
           rx="3"
           ry="3" /><rect
           style="fill:#6b8e3c;fill-opacity:1;fill-rule:evenodd;stroke:none;stroke-width:0.523655;stroke-linecap:round;stroke-linejoin:round;stroke-miterlimit:1.8;paint-order:markers stroke fill"
           id="rect50"
           width="18.715475"
           height="18.715475"
           x="72.325249"
           y="203.18541"
           rx="3"
           ry="3" /><rect
           style="fill:#6b8e3c;fill-opacity:1;fill-rule:evenodd;stroke:none;stroke-width:0.523655;stroke-linecap:round;stroke-linejoin:round;stroke-miterlimit:1.8;paint-order:markers stroke fill"
           id="rect51"
           width="18.715475"
           height="18.715475"
           x="95.642258"
           y="203.18541"
           rx="3"
           ry="3" /><rect
           style="fill:#6b8e3c;fill-opacity:1;fill-rule:evenodd;stroke:none;stroke-width:0.523655;stroke-linecap:round;stroke-linejoin:round;stroke-miterlimit:1.8;paint-order:markers stroke fill"
           id="rect52"
           width="18.715475"
           height="18.715475"
           x="118.95926"
           y="203.18541"
           rx="3"
           ry="3" /><rect
           style="fill:#6b8e3c;fill-opacity:1;fill-rule:evenodd;stroke:none;stroke-width:0.523655;stroke-linecap:round;stroke-linejoin:round;stroke-miterlimit:1.8;paint-order:markers stroke fill"
           id="rect53"
           width="18.715475"
           height="18.715475"
           x="142.27625"
           y="203.18541"
           rx="3"
           ry="3" /><rect
           style="fill:#6b8e3c;fill-opacity:1;fill-rule:evenodd;stroke:none;stroke-width:0.523655;stroke-linecap:round;stroke-linejoin:round;stroke-miterlimit:1.8;paint-order:markers stroke fill"
           id="rect54"
           width="18.715475"
           height="18.715475"
           x="165.59326"
           y="203.18541"
           rx="3"
           ry="3" /><rect
           style="fill:#6b8e3c;fill-opacity:1;fill-rule:evenodd;stroke:none;stroke-width:0.523655;stroke-linecap:round;stroke-linejoin:round;stroke-miterlimit:1.8;paint-order:markers stroke fill"
           id="rect55"
           width="18.715475"
           height="18.715475"
           x="49.008232"
           y="225.68765"
           rx="3"
           ry="3" /><rect
           style="fill:#6b8e3c;fill-opacity:1;fill-rule:evenodd;stroke:none;stroke-width:0.523655;stroke-linecap:round;stroke-linejoin:round;stroke-miterlimit:1.8;paint-order:markers stroke fill"
           id="rect56"
           width="18.715475"
           height="18.715475"
           x="72.325249"
           y="225.68765"
           rx="3"
           ry="3" /><rect
           style="fill:#6b8e3c;fill-opacity:1;fill-rule:evenodd;stroke:none;stroke-width:0.523655;stroke-linecap:round;stroke-linejoin:round;stroke-miterlimit:1.8;paint-order:markers stroke fill"
           id="rect57"
           width="18.715475"
           height="18.715475"
           x="95.642258"
           y="225.68765"
           rx="3"
           ry="3" /><rect
           style="fill:#6b8e3c;fill-opacity:1;fill-rule:evenodd;stroke:none;stroke-width:0.523655;stroke-linecap:round;stroke-linejoin:round;stroke-miterlimit:1.8;paint-order:markers stroke fill"
           id="rect58"
           width="18.715475"
           height="18.715475"
           x="118.95926"
           y="225.68765"
           rx="3"
           ry="3" /><rect
           style="fill:#6b8e3c;fill-opacity:1;fill-rule:evenodd;stroke:none;stroke-width:0.523655;stroke-linecap:round;stroke-linejoin:round;stroke-miterlimit:1.8;paint-order:markers stroke fill"
           id="rect59"
           width="18.715475"
           height="18.715475"
           x="142.27625"
           y="225.68765"
           rx="3"
           ry="3" /><rect
           style="fill:#6b8e3c;fill-opacity:1;fill-rule:evenodd;stroke:none;stroke-width:0.523655;stroke-linecap:round;stroke-linejoin:round;stroke-miterlimit:1.8;paint-order:markers stroke fill"
           id="rect60"
           width="18.715475"
           height="18.715475"
           x="165.59326"
           y="225.68765"
           rx="3"
           ry="3" /><rect
           style="fill:#6b8e3c;fill-opacity:1;fill-rule:evenodd;stroke:none;stroke-width:0.523655;stroke-linecap:round;stroke-linejoin:round;stroke-miterlimit:1.8;paint-order:markers stroke fill"
           id="rect61"
           width="18.715475"
           height="18.715475"
           x="49.008232"
           y="248.68523"
           rx="3"
           ry="3" /><rect
           style="fill:#6b8e3c;fill-opacity:1;fill-rule:evenodd;stroke:none;stroke-width:0.523655;stroke-linecap:round;stroke-linejoin:round;stroke-miterlimit:1.8;paint-order:markers stroke fill"
           id="rect62"
           width="18.715475"
           height="18.715475"
           x="72.325249"
           y="248.68523"
           rx="3"
           ry="3" /><rect
           style="fill:#6b8e3c;fill-opacity:1;fill-rule:evenodd;stroke:none;stroke-width:0.523655;stroke-linecap:round;stroke-linejoin:round;stroke-miterlimit:1.8;paint-order:markers stroke fill"
           id="rect63"
           width="18.715475"
           height="18.715475"
           x="95.642258"
           y="248.68523"
           rx="3"
           ry="3" /><rect
           style="fill:#6b8e3c;fill-opacity:1;fill-rule:evenodd;stroke:none;stroke-width:0.523655;stroke-linecap:round;stroke-linejoin:round;stroke-miterlimit:1.8;paint-order:markers stroke fill"
           id="rect64"
           width="18.715475"
           height="18.715475"
           x="118.95926"
           y="248.68523"
           rx="3"
           ry="3" /><rect
           style="fill:#6b8e3c;fill-opacity:1;fill-rule:evenodd;stroke:none;stroke-width:0.523655;stroke-linecap:round;stroke-linejoin:round;stroke-miterlimit:1.8;paint-order:markers stroke fill"
           id="rect65"
           width="18.715475"
           height="18.715475"
           x="142.27625"
           y="248.68523"
           rx="3"
           ry="3" /><rect
           style="fill:#6b8e3c;fill-opacity:1;fill-rule:evenodd;stroke:none;stroke-width:0.523655;stroke-linecap:round;stroke-linejoin:round;stroke-miterlimit:1.8;paint-order:markers stroke fill"
           id="rect66"
           width="18.715475"
           height="18.715475"
           x="165.59326"
           y="248.68523"
           rx="3"
           ry="3" /><rect
           style="fill:#6b8e3c;fill-opacity:1;fill-rule:evenodd;stroke:none;stroke-width:0.523655;stroke-linecap:round;stroke-linejoin:round;stroke-miterlimit:1.8;paint-order:markers stroke fill"
           id="rect61-7"
           width="18.715475"
           height="18.715475"
           x="49.008232"
           y="271.68283"
           rx="3"
           ry="3" /><rect
           style="fill:#6b8e3c;fill-opacity:1;fill-rule:evenodd;stroke:none;stroke-width:0.523655;stroke-linecap:round;stroke-linejoin:round;stroke-miterlimit:1.8;paint-order:markers stroke fill"
           id="rect62-2"
           width="18.715475"
           height="18.715475"
           x="72.325249"
           y="271.68283"
           rx="3"
           ry="3" /><rect
           style="fill:#6b8e3c;fill-opacity:1;fill-rule:evenodd;stroke:none;stroke-width:0.523655;stroke-linecap:round;stroke-linejoin:round;stroke-miterlimit:1.8;paint-order:markers stroke fill"
           id="rect63-4"
           width="18.715475"
           height="18.715475"
           x="95.642265"
           y="271.68283"
           rx="3"
           ry="3" /><rect
           style="fill:#6b8e3c;fill-opacity:1;fill-rule:evenodd;stroke:none;stroke-width:0.523655;stroke-linecap:round;stroke-linejoin:round;stroke-miterlimit:1.8;paint-order:markers stroke fill"
           id="rect64-4"
           width="18.715475"
           height="18.715475"
           x="118.95926"
           y="271.68283"
           rx="3"
           ry="3" /><rect
           style="fill:#6b8e3c;fill-opacity:1;fill-rule:evenodd;stroke:none;stroke-width:0.523655;stroke-linecap:round;stroke-linejoin:round;stroke-miterlimit:1.8;paint-order:markers stroke fill"
           id="rect65-6"
           width="18.715475"
           height="18.715475"
           x="142.27626"
           y="271.68283"
           rx="3"
           ry="3" /><rect
           style="fill:#6b8e3c;fill-opacity:1;fill-rule:evenodd;stroke:none;stroke-width:0.523655;stroke-linecap:round;stroke-linejoin:round;stroke-miterlimit:1.8;paint-order:markers stroke fill"
           id="rect66-2"
           width="18.715475"
           height="18.715475"
           x="165.59328"
           y="271.68283"
           rx="3"
           ry="3" /></g><g
         id="g76"
         transform="translate(-0.35740072,8.730015)"><rect
           style="fill:#e72a2a;fill-opacity:1;fill-rule:evenodd;stroke:none;stroke-width:4.99999;stroke-linecap:round;stroke-linejoin:round;stroke-miterlimit:1.8;stroke-dasharray:none;stroke-opacity:1;paint-order:markers stroke fill"
           id="rect70"
           width="48.249096"
           height="23.588448"
           x="52.198463"
           y="76.832176"
           rx="3"
           ry="3" /><rect
           style="fill:#292929;fill-opacity:1;fill-rule:evenodd;stroke:none;stroke-width:4.99999;stroke-linecap:round;stroke-linejoin:round;stroke-miterlimit:1.8;stroke-dasharray:none;stroke-opacity:1;paint-order:markers stroke fill"
           id="rect71"
           width="17.512636"
           height="4.6462092"
           x="56.506325"
           y="97.123642"
           rx="3"
           ry="3" /><rect
           style="fill:#292929;fill-opacity:1;fill-rule:evenodd;stroke:none;stroke-width:4.99999;stroke-linecap:round;stroke-linejoin:round;stroke-miterlimit:1.8;stroke-dasharray:none;stroke-opacity:1;paint-order:markers stroke fill"
           id="rect72"
           width="17.512636"
           height="4.6462092"
           x="79.942978"
           y="97.250008"
           rx="3"
           ry="3" /><rect
           style="fill:#292929;fill-opacity:1;fill-rule:evenodd;stroke:none;stroke-width:4.99999;stroke-linecap:round;stroke-linejoin:round;stroke-miterlimit:1.8;stroke-dasharray:none;stroke-opacity:1;paint-order:markers stroke fill"
           id="rect73"
           width="17.512636"
           height="4.6462092"
           x="56.685024"
           y="74.87545"
           rx="3"
           ry="3" /><rect
           style="fill:#292929;fill-opacity:1;fill-rule:evenodd;stroke:none;stroke-width:4.99999;stroke-linecap:round;stroke-linejoin:round;stroke-miterlimit:1.8;stroke-dasharray:none;stroke-opacity:1;paint-order:markers stroke fill"
           id="rect74"
           width="17.512636"
           height="4.6462092"
           x="80.121681"
           y="75.001816"
           rx="3"
           ry="3" /><rect
           style="fill:#ab1414;fill-opacity:1;fill-rule:evenodd;stroke:none;stroke-width:2.31076;stroke-linecap:round;stroke-linejoin:round;stroke-miterlimit:1.8;stroke-dasharray:none;stroke-opacity:1;paint-order:markers stroke fill"
           id="rect75"
           width="19.525869"
           height="12.449458"
           x="62.315174"
           y="81.709427"
           rx="1.2140664"
           ry="1.5833333" /><rect
           style="fill:#ffffff;fill-opacity:1;fill-rule:evenodd;stroke:none;stroke-width:1.64687;stroke-linecap:round;stroke-linejoin:round;stroke-miterlimit:1.8;stroke-dasharray:none;stroke-opacity:1;paint-order:markers stroke fill"
           id="rect76"
           width="9.9178715"
           height="12.449458"
           x="-92.116318"
           y="81.88813"
           rx="0.61666679"
           ry="1.5833333"
           transform="scale(-1,1)" /></g><g
         id="g83"
         transform="translate(-21.838641,76.459103)"><rect
           style="fill:#e6c323;fill-opacity:1;fill-rule:evenodd;stroke:none;stroke-width:4.99999;stroke-linecap:round;stroke-linejoin:round;stroke-miterlimit:1.8;stroke-dasharray:none;stroke-opacity:1;paint-order:markers stroke fill"
           id="rect77"
           width="48.249096"
           height="23.588448"
           x="52.198463"
           y="76.832176"
           rx="3"
           ry="3" /><rect
           style="fill:#292929;fill-opacity:1;fill-rule:evenodd;stroke:none;stroke-width:4.99999;stroke-linecap:round;stroke-linejoin:round;stroke-miterlimit:1.8;stroke-dasharray:none;stroke-opacity:1;paint-order:markers stroke fill"
           id="rect78"
           width="17.512636"
           height="4.6462092"
           x="56.506325"
           y="97.123642"
           rx="3"
           ry="3" /><rect
           style="fill:#292929;fill-opacity:1;fill-rule:evenodd;stroke:none;stroke-width:4.99999;stroke-linecap:round;stroke-linejoin:round;stroke-miterlimit:1.8;stroke-dasharray:none;stroke-opacity:1;paint-order:markers stroke fill"
           id="rect79"
           width="17.512636"
           height="4.6462092"
           x="79.942978"
           y="97.250008"
           rx="3"
           ry="3" /><rect
           style="fill:#292929;fill-opacity:1;fill-rule:evenodd;stroke:none;stroke-width:4.99999;stroke-linecap:round;stroke-linejoin:round;stroke-miterlimit:1.8;stroke-dasharray:none;stroke-opacity:1;paint-order:markers stroke fill"
           id="rect80"
           width="17.512636"
           height="4.6462092"
           x="56.685024"
           y="74.87545"
           rx="3"
           ry="3" /><rect
           style="fill:#292929;fill-opacity:1;fill-rule:evenodd;stroke:none;stroke-width:4.99999;stroke-linecap:round;stroke-linejoin:round;stroke-miterlimit:1.8;stroke-dasharray:none;stroke-opacity:1;paint-order:markers stroke fill"
           id="rect81"
           width="17.512636"
           height="4.6462092"
           x="80.121681"
           y="75.001816"
           rx="3"
           ry="3" /><rect
           style="fill:#e99c18;fill-opacity:1;fill-rule:evenodd;stroke:none;stroke-width:2.31076;stroke-linecap:round;stroke-linejoin:round;stroke-miterlimit:1.8;stroke-dasharray:none;stroke-opacity:1;paint-order:markers stroke fill"
           id="rect82"
           width="19.525869"
           height="12.449458"
           x="62.315174"
           y="81.709427"
           rx="1.2140664"
           ry="1.5833333" /><rect
           style="fill:#ffffff;fill-opacity:1;fill-rule:evenodd;stroke:none;stroke-width:1.64687;stroke-linecap:round;stroke-linejoin:round;stroke-miterlimit:1.8;stroke-dasharray:none;stroke-opacity:1;paint-order:markers stroke fill"
           id="rect83"
           width="9.9178715"
           height="12.449458"
           x="-92.116318"
           y="81.88813"
           rx="0.61666679"
           ry="1.5833333"
           transform="scale(-1,1)" /></g><g
         id="g95"
         transform="rotate(-90,126.37807,80.419879)"><rect
           style="fill:#10b21d;fill-opacity:1;fill-rule:evenodd;stroke:none;stroke-width:4.99999;stroke-linecap:round;stroke-linejoin:round;stroke-miterlimit:1.8;stroke-dasharray:none;stroke-opacity:1;paint-order:markers stroke fill"
           id="rect89"
           width="48.249096"
           height="23.588448"
           x="52.198463"
           y="76.832176"
           rx="3"
           ry="3" /><rect
           style="fill:#292929;fill-opacity:1;fill-rule:evenodd;stroke:none;stroke-width:4.99999;stroke-linecap:round;stroke-linejoin:round;stroke-miterlimit:1.8;stroke-dasharray:none;stroke-opacity:1;paint-order:markers stroke fill"
           id="rect90"
           width="17.512636"
           height="4.6462092"
           x="56.506325"
           y="97.123642"
           rx="3"
           ry="3" /><rect
           style="fill:#292929;fill-opacity:1;fill-rule:evenodd;stroke:none;stroke-width:4.99999;stroke-linecap:round;stroke-linejoin:round;stroke-miterlimit:1.8;stroke-dasharray:none;stroke-opacity:1;paint-order:markers stroke fill"
           id="rect91"
           width="17.512636"
           height="4.6462092"
           x="79.942978"
           y="97.250008"
           rx="3"
           ry="3" /><rect
           style="fill:#292929;fill-opacity:1;fill-rule:evenodd;stroke:none;stroke-width:4.99999;stroke-linecap:round;stroke-linejoin:round;stroke-miterlimit:1.8;stroke-dasharray:none;stroke-opacity:1;paint-order:markers stroke fill"
           id="rect92"
           width="17.512636"
           height="4.6462092"
           x="56.685024"
           y="74.87545"
           rx="3"
           ry="3" /><rect
           style="fill:#292929;fill-opacity:1;fill-rule:evenodd;stroke:none;stroke-width:4.99999;stroke-linecap:round;stroke-linejoin:round;stroke-miterlimit:1.8;stroke-dasharray:none;stroke-opacity:1;paint-order:markers stroke fill"
           id="rect93"
           width="17.512636"
           height="4.6462092"
           x="80.121681"
           y="75.001816"
           rx="3"
           ry="3" /><rect
           style="fill:#0c8515;fill-opacity:1;fill-rule:evenodd;stroke:none;stroke-width:2.31076;stroke-linecap:round;stroke-linejoin:round;stroke-miterlimit:1.8;stroke-dasharray:none;stroke-opacity:1;paint-order:markers stroke fill"
           id="rect94"
           width="19.525869"
           height="12.449458"
           x="62.378353"
           y="82.720306"
           rx="1.2140664"
           ry="1.5833333" /><rect
           style="fill:#ffffff;fill-opacity:1;fill-rule:evenodd;stroke:none;stroke-width:1.64687;stroke-linecap:round;stroke-linejoin:round;stroke-miterlimit:1.8;stroke-dasharray:none;stroke-opacity:1;paint-order:markers stroke fill"
           id="rect95"
           width="9.9178715"
           height="12.449458"
           x="-92.43222"
           y="82.709473"
           rx="0.61666679"
           ry="1.5833333"
           transform="scale(-1,1)" /></g><g
         id="g102"
         transform="translate(24.303249,-35.587675)"><rect
           style="fill:#8f0e8e;fill-opacity:1;fill-rule:evenodd;stroke:none;stroke-width:6.04343;stroke-linecap:round;stroke-linejoin:round;stroke-miterlimit:1.8;stroke-dasharray:none;stroke-opacity:1;paint-order:markers stroke fill"
           id="rect96"
           width="70.488495"
           height="23.588448"
           x="52.198463"
           y="76.832176"
           rx="4.3827868"
           ry="3" /><rect
           style="fill:#292929;fill-opacity:1;fill-rule:evenodd;stroke:none;stroke-width:4.99999;stroke-linecap:round;stroke-linejoin:round;stroke-miterlimit:1.8;stroke-dasharray:none;stroke-opacity:1;paint-order:markers stroke fill"
           id="rect97"
           width="17.512636"
           height="4.6462092"
           x="56.506325"
           y="97.123642"
           rx="3"
           ry="3" /><rect
           style="fill:#292929;fill-opacity:1;fill-rule:evenodd;stroke:none;stroke-width:4.99999;stroke-linecap:round;stroke-linejoin:round;stroke-miterlimit:1.8;stroke-dasharray:none;stroke-opacity:1;paint-order:markers stroke fill"
           id="rect98"
           width="17.512636"
           height="4.6462092"
           x="101.1715"
           y="97.502731"
           rx="3"
           ry="3" /><rect
           style="fill:#292929;fill-opacity:1;fill-rule:evenodd;stroke:none;stroke-width:4.99999;stroke-linecap:round;stroke-linejoin:round;stroke-miterlimit:1.8;stroke-dasharray:none;stroke-opacity:1;paint-order:markers stroke fill"
           id="rect99"
           width="17.512636"
           height="4.6462092"
           x="56.685024"
           y="74.87545"
           rx="3"
           ry="3" /><rect
           style="fill:#292929;fill-opacity:1;fill-rule:evenodd;stroke:none;stroke-width:4.99999;stroke-linecap:round;stroke-linejoin:round;stroke-miterlimit:1.8;stroke-dasharray:none;stroke-opacity:1;paint-order:markers stroke fill"
           id="rect100"
           width="17.512636"
           height="4.6462092"
           x="100.84476"
           y="75.380898"
           rx="3"
           ry="3" /><rect
           style="fill:#6b0a6a;fill-opacity:1;fill-rule:evenodd;stroke:none;stroke-width:3.54109;stroke-linecap:round;stroke-linejoin:round;stroke-miterlimit:1.8;stroke-dasharray:none;stroke-opacity:1;paint-order:markers stroke fill"
           id="rect101"
           width="45.853699"
           height="12.449458"
           x="57.847664"
           y="81.709427"
           rx="2.8510604"
           ry="1.5833333" /><rect
           style="fill:#ffffff;fill-opacity:1;fill-rule:evenodd;stroke:none;stroke-width:1.64687;stroke-linecap:round;stroke-linejoin:round;stroke-miterlimit:1.8;stroke-dasharray:none;stroke-opacity:1;paint-order:markers stroke fill"
           id="rect102"
           width="9.9178715"
           height="12.449458"
           x="-115.61932"
           y="81.38269"
           rx="0.61666679"
           ry="1.5833333"
           transform="scale(-1,1)" /></g><text
         xml:space="preserve"
         style="font-size:14.1111px;line-height:0;font-family:'Upheaval TT (BRK)';-inkscape-font-specification:'Upheaval TT (BRK)';letter-spacing:0.264583px;word-spacing:0px;fill:#ffffff;fill-opacity:0.74339;fill-rule:evenodd;stroke:none;stroke-width:4.99999;stroke-linecap:round;stroke-linejoin:round;stroke-miterlimit:1.8;stroke-dasharray:none;stroke-opacity:1;paint-order:markers stroke fill"
         x="70.15522"
         y="29.227579"
         id="text102"><tspan
           sodipodi:role="line"
           id="tspan102"
           style="fill:#ffffff;fill-opacity:0.74339;stroke-width:5"
           x="70.15522"
           y="29.227579">MOVES: 4</tspan></text><g
         id="g105"><rect
           style="fill:#ff7f2a;fill-opacity:0.981337;fill-rule:evenodd;stroke:none;stroke-width:4.39755;stroke-linecap:round;stroke-linejoin:round;stroke-miterlimit:1.8;stroke-dasharray:none;stroke-opacity:1;paint-order:markers stroke fill"
           id="rect103"
           width="6.2545128"
           height="10.574751"
           x="184.95488"
           y="200.73842"
           rx="2"
           ry="1.5470819" /><rect
           style="fill:#ff7f2a;fill-opacity:0.981337;fill-rule:evenodd;stroke:none;stroke-width:5.5477;stroke-linecap:round;stroke-linejoin:round;stroke-miterlimit:1.8;stroke-dasharray:none;stroke-opacity:1;paint-order:markers stroke fill"
           id="rect104"
           width="6.2545128"
           height="16.829582"
           x="192.5365"
           y="194.4836"
           rx="2"
           ry="1.4541107" /><rect
           style="fill:#ff7f2a;fill-opacity:0.981337;fill-rule:evenodd;stroke:none;stroke-width:3.40548;stroke-linecap:round;stroke-linejoin:round;stroke-miterlimit:1.8;stroke-dasharray:none;stroke-opacity:1;paint-order:markers stroke fill"
           id="rect105"
           width="6.2545128"
           height="6.3416829"
           x="200.30765"
           y="205.03467"
           rx="2"
           ry="1.4939523" /><path
           sodipodi:type="star"
           style="fill:#ffe72a;fill-opacity:0.981337;fill-rule:evenodd;stroke:none;stroke-width:4.99999;stroke-linecap:round;stroke-linejoin:round;stroke-miterlimit:1.8;stroke-dasharray:none;stroke-opacity:1;paint-order:markers stroke fill"
           id="path105"
           inkscape:flatsided="false"
           sodipodi:sides="5"
           sodipodi:cx="191.62531"
           sodipodi:cy="180.37923"
           sodipodi:r1="5.1934671"
           sodipodi:r2="2.596734"
           sodipodi:arg1="0.93216136"
           sodipodi:arg2="1.5604799"
           inkscape:rounded="0.2"
           inkscape:randomized="0.002"
           d="m 194.71537,184.54097 c -0.55452,0.41076 -2.37505,-1.57816 -3.0648,-1.57162 -0.68975,0.007 -2.47499,2.05353 -3.03595,1.65213 -0.56095,-0.4014 0.76852,-2.76667 0.55057,-3.42094 -0.21795,-0.65427 -2.70889,-1.70879 -2.50179,-2.36629 0.2071,-0.6575 2.85729,-0.12954 3.41046,-0.54041 0.55318,-0.41087 0.80241,-3.10788 1.49154,-3.113 0.68913,-0.005 0.99477,2.67987 1.55616,3.08117 0.56139,0.40131 3.20079,-0.18685 3.42161,0.46609 0.22082,0.65295 -2.23325,1.77279 -2.44133,2.43084 -0.20808,0.65804 1.16805,2.97126 0.61353,3.38203 z"
           inkscape:transform-center-x="0.02013435"
           inkscape:transform-center-y="-0.45389386"
           transform="translate(4.0435276,8.7188564)" /></g></g><g
       id="g6"
       transform="translate(-20.01444,-35.025271)"
       inkscape:export-filename="grid.svg"
       inkscape:export-xdpi="96"
       inkscape:export-ydpi="96"><rect
         style="fill:#ffffff;fill-opacity:1;fill-rule:evenodd;stroke:none;stroke-width:3;stroke-linecap:round;stroke-linejoin:round;stroke-miterlimit:1.8;paint-order:markers stroke fill"
         id="rect5"
         width="219.26535"
         height="146.17688"
         x="313.29208"
         y="-32.178963" /><path
         d="M 264.00407,147.56414 H 561.00405 M 264.00407,134.33497 H 561.00405 M 264.00407,121.10581 H 561.00405 M 264.00407,107.87664 H 561.00405 M 264.00407,94.647467 H 561.00405 M 264.00407,81.418307 H 561.00405 M 264.00407,68.189137 H 561.00405 M 264.00407,54.959967 H 561.00405 M 264.00407,41.730807 H 561.00405 M 264.00407,28.501637 H 561.00405 M 264.00407,15.272477 H 561.00405 M 264.00407,2.0433089 H 561.00405 M 264.00407,-11.185861 H 561.00405 M 264.00407,-24.415019 H 561.00405 M 264.00407,-37.644189 H 561.00405 M 264.00407,-50.873359 H 561.00405 M 264.00407,147.56414 V -62.435859 M 277.23323,147.56414 V -62.435859 M 290.4624,147.56414 V -62.435859 M 303.69157,147.56414 V -62.435859 M 316.92073,147.56414 V -62.435859 M 330.1499,147.56414 V -62.435859 M 343.37906,147.56414 V -62.435859 M 356.60823,147.56414 V -62.435859 M 369.83739,147.56414 V -62.435859 M 383.06656,147.56414 V -62.435859 M 396.29572,147.56414 V -62.435859 M 409.52489,147.56414 V -62.435859 M 422.75406,147.56414 V -62.435859 M 435.98322,147.56414 V -62.435859 M 449.21239,147.56414 V -62.435859 M 462.44156,147.56414 V -62.435859 M 475.67072,147.56414 V -62.435859 M 488.89989,147.56414 V -62.435859 M 502.12905,147.56414 V -62.435859 M 515.35822,147.56414 V -62.435859 M 528.58739,147.56414 V -62.435859 M 541.81655,147.56414 V -62.435859 M 555.04572,147.56414 V -62.435859"
         style="fill:none;stroke:#000000;stroke-width:0.264583px;stroke-opacity:0.258165"
         id="path6" /></g><rect
       style="fill:#f92d2d;fill-opacity:1;fill-rule:evenodd;stroke:none;stroke-width:3.69309;stroke-linecap:round;stroke-linejoin:round;stroke-miterlimit:1.8;stroke-opacity:0.258165;paint-order:markers stroke fill;filter:url(#filter38)"
       id="rect6"
       width="68.259178"
       height="33.12875"
       x="313.88074"
       y="9.9855757"
       rx="7.0222402"
       ry="7.0222402"
       inkscape:export-filename="..\..\block2.svg"
       inkscape:export-xdpi="96"
       inkscape:export-ydpi="96" /><g
       id="g25"
       transform="matrix(0.52554476,0,0,0.52554476,170.43586,130.32894)"
       inkscape:export-filename="hand.svg"
       inkscape:export-xdpi="96"
       inkscape:export-ydpi="96"><path
         style="fill:#000000"
         d="m 360.66518,-108.02074 c -1.21106,-0.35062 -2.10965,-1.57836 -2.7486,-3.75538 -1.28113,-4.36507 -3.71046,-8.15028 -8.16065,-12.71536 -3.26791,-3.35228 -6.00922,-5.70003 -12.85903,-11.01296 -3.05594,-2.37027 -6.29598,-4.95509 -7.2001,-5.74405 -4.87368,-4.25291 -4.61665,-11.26915 0.5425,-14.80844 1.59084,-1.09136 3.02218,-1.51538 5.0701,-1.50197 2.53599,0.0166 3.62265,0.46786 6.68842,2.77752 3.10036,2.33572 3.68527,2.67676 3.42425,1.99656 -0.15081,-0.39299 -0.97931,-4.33398 -5.37961,-25.58934 -0.79833,-3.85631 -1.81108,-8.73787 -2.25054,-10.84792 -0.98169,-4.71344 -0.9468,-6.72856 0.14885,-8.59816 1.61924,-2.76301 3.88183,-4.09511 6.96266,-4.09926 2.19294,-0.003 3.573,0.51791 5.30867,2.00358 1.68747,1.44442 2.25441,3.00321 3.73927,10.28103 0.74046,3.62926 1.37607,6.62843 1.41245,6.66481 0.0364,0.0364 0.56904,-0.27157 1.18367,-0.68436 1.32148,-0.88752 3.91671,-1.40498 5.51138,-1.0989 1.71644,0.32945 3.46983,1.30776 4.53177,2.52854 l 0.97931,1.12577 1.05075,-0.76116 c 2.21595,-1.60523 5.3594,-1.92656 7.89112,-0.80666 1.40119,0.6198 3.00185,1.98296 3.53177,3.0077 l 0.38945,0.75313 1.42126,-0.94366 c 2.76339,-1.83479 5.91722,-1.79189 8.92827,0.12143 1.99199,1.26577 2.55865,2.53796 3.71919,8.34978 2.49869,12.51307 3.83965,21.71206 4.0906,28.0616 0.18027,4.56105 -0.1286,7.50568 -1.17949,11.24479 -0.60874,2.16594 -0.70563,3.0075 -0.70059,6.08542 0.003,1.96453 0.16087,4.61099 0.35036,5.88103 0.32728,2.19358 0.31652,2.36572 -0.21498,3.43958 -0.30772,0.62174 -0.85566,1.34453 -1.21764,1.6062 -0.41534,0.30025 -3.6595,1.10156 -8.79356,2.17201 -21.21398,4.42309 -24.78945,5.15578 -25.05163,5.13357 -0.15493,-0.0131 -0.65877,-0.13304 -1.11965,-0.26647 z m 5.63426,-4.60296 c 1.72766,-0.36298 8.30506,-1.72109 14.61643,-3.01802 7.11825,-1.46273 11.62594,-2.50875 11.87213,-2.75495 0.34581,-0.3458 0.35662,-0.90258 0.084,-4.32619 -0.35832,-4.49989 -0.17219,-6.64604 0.93703,-10.80443 0.58886,-2.2076 0.72525,-3.36894 0.82345,-7.01146 0.16629,-6.16824 -0.69412,-13.07547 -3.39471,-27.25208 -1.41801,-7.44382 -1.65969,-8.15964 -3.0117,-8.92062 -1.87353,-1.05449 -3.97833,-0.63 -5.26945,1.06274 -1.03043,1.35097 -1.08004,2.30013 -0.31064,5.94386 0.8886,4.20824 0.88483,4.89365 -0.0309,5.61394 -0.79783,0.62758 -1.7431,0.54838 -2.51681,-0.21087 -0.30668,-0.30095 -0.8533,-2.38558 -1.67804,-6.39947 -0.67277,-3.27422 -1.42702,-6.3099 -1.67614,-6.74597 -1.02208,-1.78916 -3.50256,-2.52777 -5.32466,-1.58553 -1.06898,0.55279 -2.11111,2.16933 -2.11111,3.27471 0,0.49819 0.54667,3.51466 1.21483,6.70327 0.68071,3.24846 1.14418,6.07901 1.05414,6.43778 -0.33279,1.32592 -1.90985,1.7521 -3.14378,0.84957 -0.54049,-0.39533 -0.50147,-0.24072 -2.43749,-9.65722 -0.78489,-3.8176 -1.54866,-7.16828 -1.69726,-7.44594 -0.46006,-0.85964 -1.84031,-1.85536 -2.82896,-2.04083 -2.04699,-0.38402 -4.3612,1.17991 -4.67832,3.16158 -0.11875,0.74205 0.49795,4.14003 2.53196,13.95095 0.66136,3.19001 0.6155,3.96453 -0.27479,4.64074 -0.70475,0.53528 -1.75879,0.42715 -2.39046,-0.24523 -0.54298,-0.57798 -2.72196,-10.45872 -6.95509,-31.5385 -0.95878,-4.77444 -1.11609,-5.21043 -2.2341,-6.19206 -1.20807,-1.06069 -2.66707,-1.26995 -4.18202,-0.59982 -1.25447,0.55491 -1.88936,1.29714 -2.2827,2.66861 -0.25041,0.87316 -0.30913,0.55756 3.69616,19.86598 3.2963,15.89058 4.54441,21.9214 5.30267,25.62239 0.84023,4.10109 0.79327,4.65957 -0.41731,4.9634 -0.3615,0.0907 -0.80454,0.0481 -0.98455,-0.0947 -5.63454,-4.46936 -10.79319,-8.38653 -11.30595,-8.58505 -3.52718,-1.36563 -7.15644,1.04395 -7.1395,4.74014 0.0116,2.52242 1.15362,3.86616 7.27024,8.55412 8.01603,6.14373 10.36457,8.08829 13.85383,11.47079 3.16438,3.06754 5.88406,6.39651 7.53319,9.22087 1.3066,2.23771 2.82234,5.59169 2.82234,6.24515 0,0.38115 0.76864,1.09825 1.17718,1.09825 0.1901,0 1.75917,-0.29698 3.48683,-0.65995 z"
         id="path24"
         sodipodi:nodetypes="ssssssssssssssssssscssscssssscsssssscsssssssssssssssssssssssssssssssscccssssscc" /><path
         style="fill:#ffffff;fill-opacity:1;fill-rule:evenodd;stroke:none;stroke-width:10.8302;stroke-linecap:round;stroke-linejoin:round;stroke-miterlimit:1.8;stroke-opacity:0.258165;paint-order:markers stroke fill"
         d="m 1302.7952,-748.77582 c -8.602,0.0614 -16.5427,8.72837 -13.8144,17.43548 7.3496,43.94454 17.5697,87.36328 26.2519,131.06087 3.0126,16.8632 7.9432,33.57247 9.1432,50.63855 -0.7282,3.59353 -6.2273,3.31902 -8.2651,0.84902 -14.2397,-9.98238 -27.1288,-21.98708 -42.0209,-30.97773 -9.5299,-3.08775 -21.4335,0.91985 -24.9742,10.87059 -5.0198,10.52395 2.6924,21.79611 11.0235,27.93687 27.6115,22.86369 57.7295,43.12319 81.0222,70.72587 11.4624,12.84077 20.4634,27.70888 25.9842,44.03167 2.4028,5.9051 10.073,1.44256 14.4569,1.28362 32.9357,-6.83246 66.0924,-12.83122 98.732,-20.9538 4.0469,-0.3663 6.6176,-3.83703 5.5705,-7.8057 -2.0724,-18.3081 -1.2749,-36.97383 3.647,-54.78038 5.4093,-31.18256 0.1242,-62.9661 -4.7259,-93.86608 -3.8643,-19.78912 -6.421,-39.98312 -12.3774,-59.27707 -3.622,-11.11404 -20.671,-11.23493 -25.9461,-1.42156 -5.3694,10.76688 0.8002,22.79398 1.3555,33.96593 1.1668,4.47447 -1.5617,10.39722 -6.8496,9.96229 -8.0182,-2.81313 -6.4578,-12.92993 -8.8369,-19.41695 -3.1348,-11.32095 -4.2183,-23.44022 -9.1246,-34.16738 -6.663,-7.60708 -21.5727,-7.72694 -25.7242,2.68827 -4.29,6.86985 0.6105,14.88447 0.9915,22.14867 1.5816,11.2619 5.5105,22.40374 5.2936,33.79371 -2.3569,5.79762 -13.2079,4.56842 -13.0645,-2.25732 -4.8168,-19.60563 -7.904,-39.70268 -13.3853,-59.11756 -4.0799,-9.94677 -18.5556,-11.17349 -25.2298,-3.2386 -6.4875,6.10193 -2.0679,15.79914 -1.439,23.26449 2.7218,16.27636 7.1124,32.47739 8.6195,48.84292 0.019,6.1276 -9.8281,8.23571 -11.4787,1.84317 -7.7296,-27.31058 -12.5801,-55.39687 -18.6572,-83.1266 -3.9421,-17.4439 -6.5937,-35.29346 -11.6171,-52.43579 -2.6453,-5.3898 -8.5925,-8.77064 -14.5606,-8.49947 z"
         id="path25"
         transform="scale(0.26458333)" /></g><g
       id="g28"
       transform="matrix(0.44421327,0,0,0.44421327,153.23416,-48.888814)"
       inkscape:export-filename="..\emph.svg"
       inkscape:export-xdpi="96"
       inkscape:export-ydpi="96"><path
         d="m 399.09165,151.31798 c -0.44517,-0.60585 -0.70487,-1.72114 -0.58434,-2.50938 0.12053,-0.78828 0.70162,-1.775 1.30749,-2.22015 1.01118,-0.74299 1.72113,-0.70486 9.75773,0.52395 8.44821,1.29175 8.68895,1.35688 9.52818,2.57711 1.11698,1.62408 0.81734,3.40747 -0.75414,4.48822 -1.19056,0.81885 -1.67294,0.7966 -9.85279,-0.45412 -7.97031,-1.21867 -8.65964,-1.39509 -9.40217,-2.40564 z"
         style="fill:#000000;stroke-width:1.80832"
         id="path1" /><path
         d="m 416.46108,122.83672 c 0.17987,-0.72998 0.86973,-1.64399 1.55212,-2.05655 0.68242,-0.41256 1.8123,-0.59869 2.54229,-0.41878 1.21834,0.30024 1.64399,0.86973 5.85017,7.82709 4.42161,7.31369 4.52586,7.54025 4.1268,8.96644 -0.53114,1.8982 -2.09231,2.8109 -3.92899,2.29693 -1.39153,-0.38935 -1.68355,-0.77394 -5.9647,-7.85532 -4.17149,-6.89998 -4.47775,-7.54225 -4.1777,-8.75984 z"
         style="fill:#000000;stroke-width:1.80832"
         id="path26" /><path
         d="m 457.02763,120.66444 c 0.74045,-0.13025 1.8552,0.13173 2.50821,0.58939 0.65301,0.45768 1.27959,1.41616 1.40981,2.15663 0.21736,1.23582 -0.13173,1.8552 -4.79784,8.51284 -4.90509,6.99863 -5.07025,7.1855 -6.53613,7.39639 -1.95102,0.28069 -3.41646,-0.77892 -3.68801,-2.66673 -0.20578,-1.43024 0.0281,-1.85271 4.77741,-8.62902 4.62763,-6.60274 5.09152,-7.14229 6.32657,-7.35952 z"
         style="fill:#000000;stroke-width:1.80832"
         id="path26-9" /><path
         d="m 477.22654,146.49978 c 0.56736,0.49329 1.06562,1.52433 1.12116,2.31981 0.0555,0.79549 -0.29469,1.88574 -0.78802,2.45309 -0.82332,0.94691 -1.52432,1.06562 -9.63458,1.63173 -8.52564,0.59512 -8.77481,0.58444 -9.86153,-0.4217 -1.44638,-1.33912 -1.54571,-3.14479 -0.24994,-4.54427 0.98167,-1.06031 1.45715,-1.14457 9.71199,-1.72075 8.04337,-0.56145 8.75462,-0.54071 9.70095,0.2821 z"
         style="fill:#000000;stroke-width:1.80832"
         id="path27" /><path
         d="m 420.28147,166.12562 c 0.74975,-0.0557 1.83279,0.31621 2.43687,0.83675 0.60407,0.52057 1.13189,1.53678 1.18757,2.28655 0.093,1.25134 -0.31621,1.83279 -5.6234,7.99156 -5.57899,6.47423 -5.76198,6.64368 -7.24159,6.70723 -1.96929,0.0846 -3.32168,-1.11595 -3.40348,-3.02144 -0.062,-1.44364 0.21284,-1.84066 5.61466,-8.10921 5.26341,-6.10799 5.77882,-6.59856 7.0294,-6.69146 z"
         style="fill:#000000;stroke-width:1.80832"
         id="path28" /></g><g
       id="text38-5"
       style="font-size:39.8938px;line-height:0.6;font-family:'Upheaval TT (BRK)';-inkscape-font-specification:'Upheaval TT (BRK)';letter-spacing:0.748006px;word-spacing:0px;fill:#ffffff;fill-rule:evenodd;stroke-width:8.48136;stroke-linecap:round;stroke-linejoin:round;stroke-miterlimit:1.8;stroke-opacity:0.258165;paint-order:markers stroke fill"
       aria-label="Block &#10;SHUFFLE"
       inkscape:export-filename="..\text38-5.svg"
       inkscape:export-xdpi="96"
       inkscape:export-ydpi="96"><path
         style="text-align:center;text-anchor:middle;fill:#000061"
         d="m 376.97101,183.93172 h 1.99469 v -5.98407 h -1.99469 v -3.98938 h 1.99469 v -5.98407 h -1.99469 v -1.99469 h -11.96814 -7.97876 v 19.9469 h 19.9469 z m -11.96814,-5.98407 h 5.98407 v 3.98938 h -5.98407 z m 0,-7.97876 h 5.98407 v 3.98938 h -5.98407 z m 16.70554,15.95752 H 403.65 v -3.98938 h -13.96283 v -15.95752 h -7.97876 z m 44.6312,-1.99469 h 1.99469 V 167.9742 h -1.99469 v -1.99469 H 408.3874 v 1.99469 h -1.99469 v 15.95752 h 1.99469 v 1.99469 h 17.95221 z m -5.98407,-5.98407 v 3.98938 h -5.98407 v -11.96814 h 5.98407 v 3.98938 z m 30.66837,5.98407 h 1.99469 v -5.98407 h -1.99469 -5.98407 v 3.98938 h -5.98407 v -11.96814 h 5.98407 v 3.98938 h 7.97876 v -5.98407 h -1.99469 v -1.99469 h -11.96814 -5.98407 v 1.99469 h -1.99469 v 15.95752 h 1.99469 v 1.99469 h 17.95221 z m 12.71616,-3.98938 h 1.99469 v 1.99469 h 1.99469 v 1.99469 h 1.99469 v 1.99469 h 9.97345 v -3.98938 h -1.99469 v -1.99469 h -1.99469 v -1.99469 h -1.99469 v -3.98938 h 1.99469 v -1.99469 h 1.99469 v -1.99469 h 1.99469 v -3.98938 h -1.99469 -7.97876 v 1.99469 h -1.99469 v 1.99469 h -1.99469 v 1.99469 h -1.99469 v -5.98407 h -7.97875 v 19.9469 h 7.97875 z"
         id="path45" /><path
         style="text-align:center;text-anchor:middle;fill:#000061"
         d="m 341.06657,209.86269 h 19.9469 V 207.868 h 1.99469 v -7.97876 h -1.99469 v -1.99469 h -5.98407 -5.98407 v -3.98938 h 13.96283 v -3.98938 h -19.9469 v 1.99469 h -1.99469 v 7.97876 h 1.99469 v 1.99469 h 11.96814 v 3.98938 h -13.96283 z m 32.66306,-7.97876 h 5.98407 v 7.97876 h 7.97876 v -19.9469 h -7.97876 v 7.97876 h -5.98407 v -7.97876 h -7.97876 v 19.9469 h 7.97876 z m 36.65244,5.98407 h 1.99469 V 189.91579 H 404.398 v 15.95752 h -5.98407 v -15.95752 h -7.97876 V 207.868 h 1.99469 v 1.99469 h 17.95221 z m 12.71616,-5.98407 h 5.98407 v -3.98938 h -5.98407 v -3.98938 h 13.96283 v -3.98938 h -13.96283 -5.98407 v 1.99469 h -1.99469 v 17.95221 h 7.97876 z m 24.6843,0 h 5.98407 v -3.98938 h -5.98407 v -3.98938 h 13.96283 v -3.98938 h -13.96283 -5.98407 v 1.99469 h -1.99469 v 17.95221 h 7.97876 z m 16.70554,7.97876 h 21.94159 v -3.98938 h -13.96283 v -15.95752 h -7.97876 z m 26.67899,0 h 19.9469 v -3.98938 h -13.96283 v -3.98938 h 5.98407 v -3.98938 h -5.98407 v -3.98938 h 13.96283 v -3.98938 h -19.9469 v 1.99469 h -1.99469 V 207.868 h 1.99469 z"
         id="path46" /></g><text
       xml:space="preserve"
       style="font-size:39.8938px;line-height:0.6;font-family:'Upheaval TT (BRK)';-inkscape-font-specification:'Upheaval TT (BRK)';letter-spacing:0.748006px;word-spacing:0px;fill:#ffffff;fill-opacity:1;fill-rule:evenodd;stroke:none;stroke-width:8.48136;stroke-linecap:round;stroke-linejoin:round;stroke-miterlimit:1.8;stroke-opacity:0.258165;paint-order:markers stroke fill"
       x="409.90265"
       y="-28.380554"
       id="text45"><tspan
         sodipodi:role="line"
         id="tspan44"
         style="line-height:0.6;text-align:center;text-anchor:middle;fill:#000061;fill-opacity:1;stroke-width:8.48136"
         x="409.90265"
         y="-28.380554">Block </tspan><tspan
         sodipodi:role="line"
         style="line-height:0.6;text-align:center;text-anchor:middle;fill:#000061;fill-opacity:1;stroke-width:8.48136"
         x="410.27664"
         y="-4.4442739"
         id="tspan45">SHUFFLE</tspan></text><path
       style="fill:#ff0000;stroke-width:0.499398"
       d="m 438.92849,31.651656 c 1.94179,-0.974037 4.61854,-2.533372 4.70714,-2.742129 0.0342,-0.08059 0.14263,-0.149848 0.24093,-0.153936 0.0983,-0.0041 1.04224,-0.643721 2.0976,-1.421421 1.05535,-0.7777 1.95144,-1.428092 1.9913,-1.445315 0.0399,-0.01725 0.0158,-0.07086 -0.0537,-0.11911 -0.0713,-0.04967 -0.0341,-0.09162 0.0857,-0.09666 0.58227,-0.02416 5.04818,-4.2979 7.86425,-7.525859 2.23238,-2.558903 6.25098,-7.978783 6.12761,-8.264298 -0.026,-0.0601 -9e-4,-0.114516 0.0557,-0.120925 0.12624,-0.01429 2.41705,-3.672207 2.49131,-3.978079 0.0142,-0.05863 0.25723,-0.527444 0.53999,-1.041772 1.0724,-1.950676 1.01689,-1.946809 -0.30088,0.02096 -0.47033,0.702322 -0.87327,1.284784 -0.89543,1.294359 -0.0221,0.0096 -0.40443,0.507854 -0.84948,1.107293 -4.22723,5.693561 -10.20205,11.415815 -15.82032,15.151568 -3.39866,2.259868 -7.68609,4.40273 -11.01053,5.503065 -3.96165,1.311244 -8.39992,2.061845 -12.07057,2.041386 -0.7539,-0.0042 -1.43147,0.0017 -1.50571,0.01308 -0.22439,0.03446 -1.59528,-0.03966 -1.69492,-0.09164 -0.0512,-0.02664 -0.39195,-0.06596 -0.75744,-0.08734 -0.36549,-0.02138 -0.86032,-0.07977 -1.09963,-0.129747 -0.2393,-0.04998 -0.42001,-0.05597 -0.40158,-0.0133 0.0184,0.04268 -0.0893,0.02888 -0.23933,-0.03062 -0.15005,-0.05951 -0.59147,-0.144147 -0.98089,-0.188098 -0.75801,-0.08553 -4.22705,-0.877753 -4.41354,-1.007906 -0.10668,-0.07446 -0.0143,-0.455981 0.56729,-2.342224 0.65658,-2.129566 0.80086,-2.638588 0.76887,-2.71262 -0.0189,-0.04382 -0.45608,0.03128 -0.97145,0.166885 -0.51537,0.135609 -1.58625,0.392995 -2.37975,0.571986 -0.79351,0.17899 -2.26402,0.523384 -3.26782,0.765318 -1.0038,0.24193 -2.82706,0.669408 -4.05167,0.949944 -3.66673,0.839981 -6.51829,1.530876 -6.53953,1.584435 -0.011,0.02771 0.15307,0.229968 0.36461,0.449484 0.21151,0.219529 1.18398,1.252013 2.16103,2.29442 0.97705,1.0424 2.12625,2.262315 2.55379,2.710915 0.42754,0.448592 1.54887,1.648162 2.49186,2.665699 1.97386,2.12989 2.98268,3.195467 3.28816,3.473146 0.11805,0.107322 0.42864,0.442719 0.69017,0.745336 0.26152,0.302626 0.51724,0.53219 0.56825,0.510148 0.15506,-0.067 0.31087,-0.654803 0.18663,-0.704069 -0.0639,-0.02533 -0.0571,-0.07161 0.0151,-0.102787 0.0722,-0.03118 0.37238,-0.873709 0.66708,-1.872242 0.29469,-0.998535 0.58084,-1.810506 0.63589,-1.804376 0.055,0.0061 0.97588,0.128071 2.04632,0.270968 7.65422,1.021813 14.74635,0.221449 21.92156,-2.473906 1.33063,-0.499847 2.44354,-0.927713 2.47314,-0.950818 0.0297,-0.02307 0.7958,-0.414198 1.70267,-0.869105 z"
       id="path47" /><g
       id="g94"
       transform="matrix(0.65583022,0,0,0.65583022,250.47456,126.07991)"><g
         id="g67"
         transform="translate(-598.23889,-79.504074)"
         inkscape:export-filename="grid.svg"
         inkscape:export-xdpi="96"
         inkscape:export-ydpi="96"><rect
           style="fill:#ffffff;fill-opacity:1;fill-rule:evenodd;stroke:none;stroke-width:4.25648;stroke-linecap:round;stroke-linejoin:round;stroke-miterlimit:1.8;paint-order:markers stroke fill"
           id="rect67"
           width="338.70587"
           height="190.49457"
           x="217.08263"
           y="-53.623005"
           inkscape:export-filename="..\..\..\Users\Flavius\Desktop\rect67.png"
           inkscape:export-xdpi="96"
           inkscape:export-ydpi="96" /><path
           d="M 214.9763,147.0587 H 511.97628 M 214.9763,133.82953 H 511.97628 M 214.9763,120.60037 H 511.97628 M 214.9763,107.3712 H 511.97628 M 214.9763,94.142026 H 511.97628 M 214.9763,80.912866 H 511.97628 M 214.9763,67.683696 H 511.97628 M 214.9763,54.454526 H 511.97628 M 214.9763,41.225366 H 511.97628 M 214.9763,27.996196 H 511.97628 M 214.9763,14.767036 H 511.97628 M 214.9763,1.537868 H 511.97628 M 214.9763,-11.691302 H 511.97628 M 214.9763,-24.92046 H 511.97628 M 214.9763,-38.14963 H 511.97628 M 214.9763,-51.3788 H 511.97628 M 214.9763,147.0587 v -210 m 13.22916,210 v -210 m 13.22917,210 v -210 m 13.22917,210 v -210 m 13.22916,210 v -210 m 13.22917,210 v -210 m 13.22916,210 v -210 m 13.22917,210 v -210 m 13.22916,210 v -210 m 13.22917,210 v -210 m 13.22916,210 v -210 m 13.22917,210 v -210 m 13.22917,210 v -210 m 13.22916,210 v -210 m 13.22917,210 v -210 m 13.22917,210 v -210 m 13.22916,210 v -210 m 13.22917,210 v -210 m 13.22916,210 v -210 m 13.22917,210 v -210 m 13.22917,210 v -210 m 13.22916,210 v -210 m 13.22917,210 v -210"
           style="fill:none;stroke:#000000;stroke-width:0.264583px;stroke-opacity:0.258165"
           id="path67" /><path
           d="M 506.01795,147.0587 H 803.01793 M 506.01795,133.82953 H 803.01793 M 506.01795,120.60037 H 803.01793 M 506.01795,107.3712 H 803.01793 M 506.01795,94.142025 H 803.01793 M 506.01795,80.912865 H 803.01793 M 506.01795,67.683695 H 803.01793 M 506.01795,54.454525 H 803.01793 M 506.01795,41.225365 H 803.01793 M 506.01795,27.996195 H 803.01793 M 506.01795,14.767035 H 803.01793 M 506.01795,1.5378676 H 803.01793 M 506.01795,-11.691303 H 803.01793 M 506.01795,-24.920461 H 803.01793 M 506.01795,-38.149631 H 803.01793 M 506.01795,-51.378801 H 803.01793 M 506.01795,147.0587 V -62.941301 M 519.24711,147.0587 V -62.941301 M 532.47628,147.0587 V -62.941301 M 545.70545,147.0587 V -62.941301 M 558.93461,147.0587 V -62.941301 M 572.16378,147.0587 V -62.941301 M 585.39294,147.0587 V -62.941301 M 598.62211,147.0587 V -62.941301 M 611.85127,147.0587 V -62.941301 M 625.08044,147.0587 V -62.941301 M 638.3096,147.0587 V -62.941301 M 651.53877,147.0587 V -62.941301 M 664.76794,147.0587 V -62.941301 M 677.9971,147.0587 V -62.941301 M 691.22627,147.0587 V -62.941301 M 704.45544,147.0587 V -62.941301 M 717.6846,147.0587 V -62.941301 M 730.91377,147.0587 V -62.941301 M 744.14293,147.0587 V -62.941301 M 757.3721,147.0587 V -62.941301 M 770.60127,147.0587 V -62.941301 M 783.83043,147.0587 V -62.941301 M 797.0596,147.0587 V -62.941301"
           style="fill:none;stroke:#000000;stroke-width:0.264583px;stroke-opacity:0.258165"
           id="path92" /></g><g
         id="g92"
         transform="translate(-71.725425,-0.34895934)"><rect
           style="fill:#f92d2d;fill-opacity:1;fill-rule:evenodd;stroke:none;stroke-width:3.69309;stroke-linecap:round;stroke-linejoin:round;stroke-miterlimit:1.8;stroke-opacity:0.258165;paint-order:markers stroke fill;filter:url(#filter38)"
           id="rect84"
           width="68.259178"
           height="33.12875"
           x="-264.34372"
           y="-34.493229"
           rx="7.0222402"
           ry="7.0222402"
           inkscape:export-filename="..\..\block2.svg"
           inkscape:export-xdpi="96"
           inkscape:export-ydpi="96"
           transform="matrix(1.2465073,0,0,1.2465073,59.060087,12.00364)" /><g
           id="g85"
           transform="matrix(0.65509538,0,0,0.65509538,-449.25136,119.01647)"
           inkscape:export-filename="hand.svg"
           inkscape:export-xdpi="96"
           inkscape:export-ydpi="96"><path
             style="fill:#000000"
             d="m 360.66518,-108.02074 c -1.21106,-0.35062 -2.10965,-1.57836 -2.7486,-3.75538 -1.28113,-4.36507 -3.71046,-8.15028 -8.16065,-12.71536 -3.26791,-3.35228 -6.00922,-5.70003 -12.85903,-11.01296 -3.05594,-2.37027 -6.29598,-4.95509 -7.2001,-5.74405 -4.87368,-4.25291 -4.61665,-11.26915 0.5425,-14.80844 1.59084,-1.09136 3.02218,-1.51538 5.0701,-1.50197 2.53599,0.0166 3.62265,0.46786 6.68842,2.77752 3.10036,2.33572 3.68527,2.67676 3.42425,1.99656 -0.15081,-0.39299 -0.97931,-4.33398 -5.37961,-25.58934 -0.79833,-3.85631 -1.81108,-8.73787 -2.25054,-10.84792 -0.98169,-4.71344 -0.9468,-6.72856 0.14885,-8.59816 1.61924,-2.76301 3.88183,-4.09511 6.96266,-4.09926 2.19294,-0.003 3.573,0.51791 5.30867,2.00358 1.68747,1.44442 2.25441,3.00321 3.73927,10.28103 0.74046,3.62926 1.37607,6.62843 1.41245,6.66481 0.0364,0.0364 0.56904,-0.27157 1.18367,-0.68436 1.32148,-0.88752 3.91671,-1.40498 5.51138,-1.0989 1.71644,0.32945 3.46983,1.30776 4.53177,2.52854 l 0.97931,1.12577 1.05075,-0.76116 c 2.21595,-1.60523 5.3594,-1.92656 7.89112,-0.80666 1.40119,0.6198 3.00185,1.98296 3.53177,3.0077 l 0.38945,0.75313 1.42126,-0.94366 c 2.76339,-1.83479 5.91722,-1.79189 8.92827,0.12143 1.99199,1.26577 2.55865,2.53796 3.71919,8.34978 2.49869,12.51307 3.83965,21.71206 4.0906,28.0616 0.18027,4.56105 -0.1286,7.50568 -1.17949,11.24479 -0.60874,2.16594 -0.70563,3.0075 -0.70059,6.08542 0.003,1.96453 0.16087,4.61099 0.35036,5.88103 0.32728,2.19358 0.31652,2.36572 -0.21498,3.43958 -0.30772,0.62174 -0.85566,1.34453 -1.21764,1.6062 -0.41534,0.30025 -3.6595,1.10156 -8.79356,2.17201 -21.21398,4.42309 -24.78945,5.15578 -25.05163,5.13357 -0.15493,-0.0131 -0.65877,-0.13304 -1.11965,-0.26647 z m 5.63426,-4.60296 c 1.72766,-0.36298 8.30506,-1.72109 14.61643,-3.01802 7.11825,-1.46273 11.62594,-2.50875 11.87213,-2.75495 0.34581,-0.3458 0.35662,-0.90258 0.084,-4.32619 -0.35832,-4.49989 -0.17219,-6.64604 0.93703,-10.80443 0.58886,-2.2076 0.72525,-3.36894 0.82345,-7.01146 0.16629,-6.16824 -0.69412,-13.07547 -3.39471,-27.25208 -1.41801,-7.44382 -1.65969,-8.15964 -3.0117,-8.92062 -1.87353,-1.05449 -3.97833,-0.63 -5.26945,1.06274 -1.03043,1.35097 -1.08004,2.30013 -0.31064,5.94386 0.8886,4.20824 0.88483,4.89365 -0.0309,5.61394 -0.79783,0.62758 -1.7431,0.54838 -2.51681,-0.21087 -0.30668,-0.30095 -0.8533,-2.38558 -1.67804,-6.39947 -0.67277,-3.27422 -1.42702,-6.3099 -1.67614,-6.74597 -1.02208,-1.78916 -3.50256,-2.52777 -5.32466,-1.58553 -1.06898,0.55279 -2.11111,2.16933 -2.11111,3.27471 0,0.49819 0.54667,3.51466 1.21483,6.70327 0.68071,3.24846 1.14418,6.07901 1.05414,6.43778 -0.33279,1.32592 -1.90985,1.7521 -3.14378,0.84957 -0.54049,-0.39533 -0.50147,-0.24072 -2.43749,-9.65722 -0.78489,-3.8176 -1.54866,-7.16828 -1.69726,-7.44594 -0.46006,-0.85964 -1.84031,-1.85536 -2.82896,-2.04083 -2.04699,-0.38402 -4.3612,1.17991 -4.67832,3.16158 -0.11875,0.74205 0.49795,4.14003 2.53196,13.95095 0.66136,3.19001 0.6155,3.96453 -0.27479,4.64074 -0.70475,0.53528 -1.75879,0.42715 -2.39046,-0.24523 -0.54298,-0.57798 -2.72196,-10.45872 -6.95509,-31.5385 -0.95878,-4.77444 -1.11609,-5.21043 -2.2341,-6.19206 -1.20807,-1.06069 -2.66707,-1.26995 -4.18202,-0.59982 -1.25447,0.55491 -1.88936,1.29714 -2.2827,2.66861 -0.25041,0.87316 -0.30913,0.55756 3.69616,19.86598 3.2963,15.89058 4.54441,21.9214 5.30267,25.62239 0.84023,4.10109 0.79327,4.65957 -0.41731,4.9634 -0.3615,0.0907 -0.80454,0.0481 -0.98455,-0.0947 -5.63454,-4.46936 -10.79319,-8.38653 -11.30595,-8.58505 -3.52718,-1.36563 -7.15644,1.04395 -7.1395,4.74014 0.0116,2.52242 1.15362,3.86616 7.27024,8.55412 8.01603,6.14373 10.36457,8.08829 13.85383,11.47079 3.16438,3.06754 5.88406,6.39651 7.53319,9.22087 1.3066,2.23771 2.82234,5.59169 2.82234,6.24515 0,0.38115 0.76864,1.09825 1.17718,1.09825 0.1901,0 1.75917,-0.29698 3.48683,-0.65995 z"
             id="path84"
             sodipodi:nodetypes="ssssssssssssssssssscssscssssscsssssscsssssssssssssssssssssssssssssssscccssssscc" /><path
             style="fill:#ffffff;fill-opacity:1;fill-rule:evenodd;stroke:none;stroke-width:10.8302;stroke-linecap:round;stroke-linejoin:round;stroke-miterlimit:1.8;stroke-opacity:0.258165;paint-order:markers stroke fill"
             d="m 1302.7952,-748.77582 c -8.602,0.0614 -16.5427,8.72837 -13.8144,17.43548 7.3496,43.94454 17.5697,87.36328 26.2519,131.06087 3.0126,16.8632 7.9432,33.57247 9.1432,50.63855 -0.7282,3.59353 -6.2273,3.31902 -8.2651,0.84902 -14.2397,-9.98238 -27.1288,-21.98708 -42.0209,-30.97773 -9.5299,-3.08775 -21.4335,0.91985 -24.9742,10.87059 -5.0198,10.52395 2.6924,21.79611 11.0235,27.93687 27.6115,22.86369 57.7295,43.12319 81.0222,70.72587 11.4624,12.84077 20.4634,27.70888 25.9842,44.03167 2.4028,5.9051 10.073,1.44256 14.4569,1.28362 32.9357,-6.83246 66.0924,-12.83122 98.732,-20.9538 4.0469,-0.3663 6.6176,-3.83703 5.5705,-7.8057 -2.0724,-18.3081 -1.2749,-36.97383 3.647,-54.78038 5.4093,-31.18256 0.1242,-62.9661 -4.7259,-93.86608 -3.8643,-19.78912 -6.421,-39.98312 -12.3774,-59.27707 -3.622,-11.11404 -20.671,-11.23493 -25.9461,-1.42156 -5.3694,10.76688 0.8002,22.79398 1.3555,33.96593 1.1668,4.47447 -1.5617,10.39722 -6.8496,9.96229 -8.0182,-2.81313 -6.4578,-12.92993 -8.8369,-19.41695 -3.1348,-11.32095 -4.2183,-23.44022 -9.1246,-34.16738 -6.663,-7.60708 -21.5727,-7.72694 -25.7242,2.68827 -4.29,6.86985 0.6105,14.88447 0.9915,22.14867 1.5816,11.2619 5.5105,22.40374 5.2936,33.79371 -2.3569,5.79762 -13.2079,4.56842 -13.0645,-2.25732 -4.8168,-19.60563 -7.904,-39.70268 -13.3853,-59.11756 -4.0799,-9.94677 -18.5556,-11.17349 -25.2298,-3.2386 -6.4875,6.10193 -2.0679,15.79914 -1.439,23.26449 2.7218,16.27636 7.1124,32.47739 8.6195,48.84292 0.019,6.1276 -9.8281,8.23571 -11.4787,1.84317 -7.7296,-27.31058 -12.5801,-55.39687 -18.6572,-83.1266 -3.9421,-17.4439 -6.5937,-35.29346 -11.6171,-52.43579 -2.6453,-5.3898 -8.5925,-8.77064 -14.5606,-8.49947 z"
             id="path85"
             transform="scale(0.26458333)" /></g><g
           id="g90"
           transform="matrix(0.55371508,0,0,0.55371508,-470.69341,-104.37978)"
           inkscape:export-filename="..\emph.svg"
           inkscape:export-xdpi="96"
           inkscape:export-ydpi="96"><path
             d="m 399.09165,151.31798 c -0.44517,-0.60585 -0.70487,-1.72114 -0.58434,-2.50938 0.12053,-0.78828 0.70162,-1.775 1.30749,-2.22015 1.01118,-0.74299 1.72113,-0.70486 9.75773,0.52395 8.44821,1.29175 8.68895,1.35688 9.52818,2.57711 1.11698,1.62408 0.81734,3.40747 -0.75414,4.48822 -1.19056,0.81885 -1.67294,0.7966 -9.85279,-0.45412 -7.97031,-1.21867 -8.65964,-1.39509 -9.40217,-2.40564 z"
             style="fill:#000000;stroke-width:1.80832"
             id="path86" /><path
             d="m 416.46108,122.83672 c 0.17987,-0.72998 0.86973,-1.64399 1.55212,-2.05655 0.68242,-0.41256 1.8123,-0.59869 2.54229,-0.41878 1.21834,0.30024 1.64399,0.86973 5.85017,7.82709 4.42161,7.31369 4.52586,7.54025 4.1268,8.96644 -0.53114,1.8982 -2.09231,2.8109 -3.92899,2.29693 -1.39153,-0.38935 -1.68355,-0.77394 -5.9647,-7.85532 -4.17149,-6.89998 -4.47775,-7.54225 -4.1777,-8.75984 z"
             style="fill:#000000;stroke-width:1.80832"
             id="path87" /><path
             d="m 457.02763,120.66444 c 0.74045,-0.13025 1.8552,0.13173 2.50821,0.58939 0.65301,0.45768 1.27959,1.41616 1.40981,2.15663 0.21736,1.23582 -0.13173,1.8552 -4.79784,8.51284 -4.90509,6.99863 -5.07025,7.1855 -6.53613,7.39639 -1.95102,0.28069 -3.41646,-0.77892 -3.68801,-2.66673 -0.20578,-1.43024 0.0281,-1.85271 4.77741,-8.62902 4.62763,-6.60274 5.09152,-7.14229 6.32657,-7.35952 z"
             style="fill:#000000;stroke-width:1.80832"
             id="path88" /><path
             d="m 477.22654,146.49978 c 0.56736,0.49329 1.06562,1.52433 1.12116,2.31981 0.0555,0.79549 -0.29469,1.88574 -0.78802,2.45309 -0.82332,0.94691 -1.52432,1.06562 -9.63458,1.63173 -8.52564,0.59512 -8.77481,0.58444 -9.86153,-0.4217 -1.44638,-1.33912 -1.54571,-3.14479 -0.24994,-4.54427 0.98167,-1.06031 1.45715,-1.14457 9.71199,-1.72075 8.04337,-0.56145 8.75462,-0.54071 9.70095,0.2821 z"
             style="fill:#000000;stroke-width:1.80832"
             id="path89" /><path
             d="m 420.28147,166.12562 c 0.74975,-0.0557 1.83279,0.31621 2.43687,0.83675 0.60407,0.52057 1.13189,1.53678 1.18757,2.28655 0.093,1.25134 -0.31621,1.83279 -5.6234,7.99156 -5.57899,6.47423 -5.76198,6.64368 -7.24159,6.70723 -1.96929,0.0846 -3.32168,-1.11595 -3.40348,-3.02144 -0.062,-1.44364 0.21284,-1.84066 5.61466,-8.10921 5.26341,-6.10799 5.77882,-6.59856 7.0294,-6.69146 z"
             style="fill:#000000;stroke-width:1.80832"
             id="path90" /></g></g><text
         xml:space="preserve"
         style="font-size:53.8861px;line-height:0.6;font-family:'Upheaval TT (BRK)';-inkscape-font-specification:'Upheaval TT (BRK)';letter-spacing:1.01036px;word-spacing:0px;fill:#ffffff;fill-opacity:1;fill-rule:evenodd;stroke:none;stroke-width:11.4561;stroke-linecap:round;stroke-linejoin:round;stroke-miterlimit:1.8;stroke-opacity:0.258165;paint-order:markers stroke fill"
         x="-201.83653"
         y="-86.30912"
         id="text91"><tspan
           sodipodi:role="line"
           id="tspan90"
           style="line-height:0.6;text-align:center;text-anchor:middle;fill:#000061;fill-opacity:1;stroke-width:11.4561"
           x="-201.83653"
           y="-86.30912">Block </tspan><tspan
           sodipodi:role="line"
           style="line-height:0.6;text-align:center;text-anchor:middle;fill:#000061;fill-opacity:1;stroke-width:11.4561"
           x="-201.33136"
           y="-53.977459"
           id="tspan91">SHUFFLE</tspan></text><path
         style="fill:#ff0000;stroke-width:0.770267"
         d="m -177.21402,10.231843 c 2.59928,-1.7310633 6.18239,-4.5023213 6.30099,-4.8733253 0.0458,-0.143225 0.19092,-0.266311 0.3225,-0.273576 0.13159,-0.0073 1.39515,-1.144025 2.80785,-2.5261571 1.4127,-1.3821322 2.6122,-2.53801229 2.66556,-2.56862129 0.0534,-0.030654 0.0211,-0.1259324 -0.0719,-0.2116835 -0.0954,-0.088275 -0.0456,-0.1628266 0.11472,-0.1717842 0.77942,-0.042937 6.75749,-7.63825031 10.52708,-13.37499461 2.98827,-4.547696 8.36757,-14.179934 8.20243,-14.687352 -0.0348,-0.10681 -0.001,-0.20352 0.0746,-0.214909 0.16899,-0.0254 3.23547,-6.526264 3.33487,-7.069863 0.019,-0.104194 0.34433,-0.937376 0.72283,-1.851441 1.43552,-3.466751 1.36121,-3.459879 -0.40276,0.03726 -0.62958,1.24817 -1.16896,2.283324 -1.19862,2.30034 -0.0296,0.01706 -0.54137,0.902561 -1.13711,1.967888 -5.65858,10.118625 -13.65648,20.288244 -21.1771,26.9274441 -4.54945,4.0162487 -10.28861,7.8245539 -14.73871,9.7800746 -5.30307,2.330349 -11.24414,3.664321 -16.15768,3.627961 -1.00917,-0.0074 -1.91616,0.003 -2.01554,0.02325 -0.30037,0.06124 -2.13544,-0.07048 -2.26882,-0.162863 -0.0685,-0.04734 -0.52467,-0.117219 -1.01391,-0.155221 -0.48925,-0.038 -1.15163,-0.141768 -1.47197,-0.230587 -0.32033,-0.08882 -0.56222,-0.09947 -0.53755,-0.02363 0.0246,0.07585 -0.11954,0.05133 -0.32037,-0.05442 -0.20086,-0.105761 -0.79174,-0.256178 -1.31302,-0.334289 -1.01467,-0.152005 -5.65834,-1.559947 -5.90797,-1.791255 -0.1428,-0.132328 -0.0191,-0.810373 0.75937,-4.16261299 0.8789,-3.78467591 1.07204,-4.68931161 1.02921,-4.82088251 -0.0253,-0.07788 -0.61051,0.055589 -1.30038,0.2965896 -0.68988,0.2410045 -2.12336,0.6984323 -3.18554,1.0165361 -1.06219,0.3181021 -3.03062,0.93016 -4.3743,1.3601276 -1.34369,0.4299587 -3.78431,1.18967471 -5.42357,1.68824491 -4.90829,1.49281839 -8.72539,2.72068019 -8.75383,2.81586619 -0.0147,0.049246 0.2049,0.4087002 0.48807,0.7988251 0.28313,0.390148 1.58488,2.225083 2.89276,4.077655 1.30788,1.852559 2.8462,4.0205973 3.4185,4.8178513 0.57231,0.79724 2.07332,2.929121 3.33561,4.737493 2.64221,3.785253 3.99262,5.679001 4.40154,6.172494 0.15802,0.190733 0.57377,0.786802 0.92386,1.324614 0.35007,0.537829 0.69238,0.94581 0.76066,0.906638 0.20756,-0.119078 0.41613,-1.163719 0.24982,-1.251276 -0.0855,-0.04502 -0.0764,-0.127269 0.0202,-0.182672 0.0966,-0.05542 0.49847,-1.55276 0.89296,-3.327359 0.39447,-1.774601 0.77751,-3.217641 0.8512,-3.206747 0.0736,0.01089 1.30632,0.227609 2.73921,0.481567 10.24595,1.815971 19.73948,0.39356 29.34422,-4.396639 1.78119,-0.88833 3.27093,-1.648735 3.31055,-1.689798 0.0398,-0.041 1.06526,-0.736115 2.2792,-1.544578 z"
         id="path91" /></g></g></svg>
